<svg id="design" xmlns="http://www.w3.org/2000/svg" viewBox="0 0 100 100"><defs><style>.cls-1{fill:#fbb040;}.cls-2{fill:#222;}</style></defs><rect class="cls-1" y="22.5" width="55" height="55" rx="27.5" transform="translate(55 100) rotate(-180)"/><path class="cls-2" d="M100,0V100c-.36,0-.71,0-1.07,0H1.07c-.36,0-.71,0-1.07,0V0C.36,0,.71,0,1.07,0H98.93C99.29,0,99.64,0,100,0ZM5.9,94H94.06V17.75H5.9ZM94.11,5.9H24a3.94,3.94,0,0,0-.77,0c-.19,0-.47.18-.51.33-.51,1.83-1,3.66-1.48,5.52H94.11ZM5.89,11.79h9.3L16.73,6H5.89Z"/><path class="cls-2" d="M88.2,28.06V45.53H41.26V28.06Zm-5.87,5.87H47.13V39.7h35.2Z"/><path class="cls-2" d="M19.09,48.41l-4.24-4.28c1-.92,2-2,3.13-3a1,1,0,0,0,.26-1.26A8.79,8.79,0,1,1,35,34.86a8.33,8.33,0,0,1-2.7,8.49,8.38,8.38,0,0,1-8.81,1.73,1.24,1.24,0,0,0-1.58.38C21,46.47,20.05,47.42,19.09,48.41Zm7.36-8.66a3,3,0,0,0,3-3,3,3,0,1,0-3,3Z"/><path class="cls-2" d="M53,87.82V58.65H88.22V87.82ZM82.4,64.52H58.88V82H82.4Z"/><path class="cls-2" d="M47,58.66V64.4H11.81V58.66Z"/><path class="cls-2" d="M11.78,76.1V70.36H47V76.1Z"/><path class="cls-2" d="M11.8,82.07H47v5.75H11.8Z"/></svg>