<?xml version="1.0" encoding="utf-8"?>
<!-- Generator: Adobe Illustrator 22.0.1, SVG Export Plug-In . SVG Version: 6.00 Build 0)  -->
<svg version="1.1" id="Layer_1" xmlns="http://www.w3.org/2000/svg" xmlns:xlink="http://www.w3.org/1999/xlink" x="0px" y="0px"
	 viewBox="0 0 586.655 200" enable-background="new 0 0 586.655 200" xml:space="preserve">
<title>MS_Gold_partner</title>
<g>
	<path fill="#080808" d="M58.85,109.663h-6.714V70.954c0-3.056,0.188-6.782,0.565-11.177h-0.157
		c-0.426,1.896-1.005,3.754-1.732,5.556l-19.679,44.33h-3.297L8.158,65.685c-0.759-1.912-1.339-3.889-1.732-5.908H6.269
		c0.216,2.303,0.324,6.053,0.324,11.252v38.635H0.111V52.016h8.918l17.641,40.2c1.034,2.225,1.907,4.521,2.611,6.871h0.278
		c1.34-3.704,2.266-6.063,2.778-7.075l18.04-39.996h8.473V109.663"/>
	<path fill="#080808" d="M77.603,109.663h-6.584V68.528h6.584v41.163 M78.723,53.711c0.029,1.161-0.439,2.28-1.287,3.075
		c-1.717,1.608-4.386,1.608-6.103,0c-0.831-0.803-1.285-1.919-1.25-3.075c-0.012-1.121,0.428-2.2,1.222-2.991
		c0.8-0.824,1.908-1.274,3.056-1.241c1.159-0.028,2.279,0.425,3.093,1.25C78.268,51.508,78.726,52.585,78.723,53.711"/>
	<path fill="#080808" d="M116.599,107.774c-3.422,1.993-7.33,2.997-11.289,2.899c-3.539,0.055-7.028-0.841-10.103-2.593
		c-2.983-1.721-5.404-4.269-6.973-7.334c-1.692-3.292-2.547-6.949-2.491-10.65c0-6.791,1.948-12.258,5.843-16.4
		c3.896-4.143,9.085-6.205,15.567-6.186c3.294-0.064,6.557,0.653,9.52,2.093v6.751c-2.852-2.061-6.278-3.178-9.798-3.195
		c-3.972-0.124-7.788,1.554-10.381,4.565c-2.667,3.044-4.001,6.976-4.001,11.798c0,4.822,1.266,8.615,3.797,11.381
		c2.615,2.823,6.342,4.351,10.187,4.177c3.671-0.032,7.23-1.276,10.122-3.538v6.269"/>
	<path fill="#080808" d="M145.946,75.168c-1.486-0.971-3.247-1.436-5.019-1.324c-2.92,0-5.291,1.374-7.112,4.121
		c-1.821,2.747-2.732,6.319-2.732,10.714v20.984h-6.584V68.528h6.584v8.483h0.157c0.752-2.592,2.211-4.923,4.214-6.732
		c1.799-1.61,4.133-2.491,6.547-2.473c1.336-0.058,2.67,0.134,3.936,0.565v6.834"/>
	<path fill="#080808" d="M180.608,89.161c0-5.174-1.145-9.14-3.436-11.9c-2.29-2.76-5.563-4.127-9.816-4.102
		c-4.229,0-7.575,1.414-10.038,4.241c-2.463,2.828-3.698,6.813-3.704,11.955c0,4.939,1.235,8.791,3.704,11.557
		c2.469,2.766,5.809,4.152,10.02,4.158c4.285,0,7.566-1.367,9.844-4.102c2.278-2.735,3.417-6.661,3.417-11.779 M187.34,88.901
		c0,6.538-1.852,11.786-5.556,15.743s-8.674,5.964-14.909,6.019c-6.081,0-10.934-1.935-14.558-5.806
		c-3.624-3.871-5.439-8.97-5.445-15.298c0-6.791,1.852-12.171,5.556-16.141s8.831-5.945,15.382-5.927
		c6.106,0,10.887,1.911,14.345,5.732c3.457,3.822,5.186,9.069,5.186,15.743"/>
	<path fill="#080808" d="M217.956,98.643c0.086,3.386-1.444,6.611-4.121,8.686c-2.747,2.223-6.396,3.334-10.946,3.334
		c-3.555,0.078-7.068-0.782-10.187-2.491v-7.075c2.986,2.533,6.771,3.927,10.687,3.936c5.223,0,7.834-1.917,7.834-5.751
		c0.051-1.425-0.504-2.804-1.528-3.797c-1.019-0.975-3.334-2.297-6.945-3.964c-3.642-1.556-6.214-3.223-7.714-5.001
		c-3.606-4.876-2.794-11.716,1.852-15.613c2.946-2.346,6.636-3.559,10.4-3.417c3.032-0.028,6.03,0.644,8.76,1.963v6.631
		c-2.69-1.95-5.939-2.977-9.261-2.926c-1.882-0.09-3.735,0.48-5.241,1.611c-1.285,0.984-2.024,2.521-1.991,4.139
		c-0.102,1.554,0.452,3.079,1.528,4.204c1.019,0.982,3.121,2.139,6.306,3.473c3.908,1.661,6.652,3.402,8.233,5.223
		c1.614,1.918,2.458,4.366,2.371,6.871"/>
	<path fill="#080808" d="M256.146,89.161c0-5.174-1.145-9.14-3.436-11.9c-2.29-2.76-5.559-4.127-9.807-4.102
		c-4.229,0-7.575,1.414-10.038,4.241c-2.463,2.828-3.698,6.813-3.704,11.955c0,4.939,1.235,8.791,3.704,11.557
		c2.565,2.802,6.244,4.316,10.038,4.13c4.285,0,7.566-1.367,9.844-4.102c2.278-2.735,3.417-6.661,3.417-11.779 M262.916,88.92
		c0,6.538-1.852,11.786-5.556,15.743c-3.704,3.957-8.677,5.948-14.919,5.973c-6.081,0-10.934-1.935-14.558-5.806
		c-3.624-3.871-5.439-8.97-5.445-15.298c0-6.791,1.852-12.171,5.556-16.141c3.704-3.97,8.831-5.945,15.382-5.927
		c6.106,0,10.887,1.911,14.345,5.732c3.457,3.822,5.186,9.069,5.186,15.743"/>
	<path fill="#080808" d="M289.882,54.508c-1.341-0.737-2.851-1.111-4.38-1.083c-4.606,0-6.908,2.908-6.908,8.723v6.381h9.687v5.556
		h-9.687v35.579h-6.584V74.084h-6.992v-5.556h6.992v-6.705c0-4.18,1.235-7.557,3.704-10.131c2.441-2.566,5.86-3.97,9.399-3.862
		c1.624-0.062,3.245,0.183,4.778,0.722v5.945"/>
	<path fill="#080808" d="M313.812,109.274c-1.916,0.96-4.045,1.416-6.186,1.324c-7.18,0-10.767-4.047-10.761-12.141V74.084h-7.066
		v-5.556h7.066V58.443l6.584-2.13v12.215h10.363v5.556h-10.363v23.235c0,2.76,0.469,4.723,1.408,5.89
		c0.938,1.167,2.503,1.75,4.695,1.75c1.526,0.035,3.022-0.43,4.26-1.324V109.274"/>
	<path fill="#080808" d="M366.698,69.584c0-7.637-4.501-11.455-13.502-11.455h-7.909v23.642h7.066c4.63,0,8.177-1.053,10.64-3.158
		C365.458,76.508,366.692,73.498,366.698,69.584 M373.764,69.223c0,5.556-1.92,10.051-5.76,13.483
		c-3.84,3.433-8.881,5.14-15.122,5.121h-7.594v21.827h-6.751V52.016h15.826c6.174,0,10.946,1.506,14.317,4.519
		C372.051,59.548,373.746,63.777,373.764,69.223"/>
	<path fill="#080808" d="M401.555,88.836l-9.964,1.408c-3.402,0.482-5.785,1.293-7.149,2.436c-1.364,1.142-2.047,2.994-2.047,5.556
		c-0.07,1.908,0.747,3.741,2.213,4.964c1.599,1.283,3.61,1.941,5.658,1.852c3.073,0.084,6.029-1.178,8.094-3.454
		c2.149-2.354,3.295-5.454,3.195-8.64v-4.102 M408.139,109.682h-6.584v-6.436h-0.157c-2.865,4.939-7.081,7.408-12.65,7.408
		c-3.964,0-7.137-1.077-9.52-3.232c-2.422-2.229-3.731-5.417-3.575-8.705c0-7.662,4.525-12.137,13.576-13.428l12.335-1.732
		c0-6.97-2.824-10.455-8.473-10.455c-4.934-0.004-9.702,1.783-13.419,5.028V71.38c1.9-1.217,3.991-2.107,6.186-2.63
		c2.528-0.783,5.152-1.21,7.797-1.269c9.668,0,14.502,5.133,14.502,15.4v26.772"/>
	<path fill="#080808" d="M439.949,75.168c-1.486-0.971-3.247-1.436-5.019-1.324c-2.92,0-5.291,1.374-7.112,4.121
		s-2.747,6.319-2.778,10.714v20.984h-6.584V68.528h6.584v8.483h0.157c0.754-2.593,2.217-4.925,4.223-6.732
		c1.798-1.611,4.133-2.492,6.547-2.473c1.336-0.058,2.67,0.134,3.936,0.565v6.834"/>
	<path fill="#080808" d="M470.648,109.274c-1.916,0.96-4.045,1.416-6.186,1.324c-7.18,0-10.767-4.047-10.761-12.141V74.084h-7.066
		v-5.556h7.066V58.443l6.584-2.13v12.215h10.363v5.556h-10.363v23.235c0,2.76,0.469,4.723,1.408,5.89
		c0.938,1.167,2.507,1.75,4.704,1.75c1.526,0.035,3.022-0.43,4.26-1.324v5.64"/>
	<path fill="#080808" d="M513.997,109.663h-6.584V86.188c0-8.711-3.186-13.067-9.557-13.067c-3.131-0.047-6.118,1.313-8.14,3.704
		c-2.226,2.599-3.39,5.943-3.26,9.362v23.475h-6.584V68.528h6.584v6.834h0.157c3.087-5.229,7.587-7.841,13.502-7.834
		c4.525,0,7.973,1.476,10.344,4.427c2.371,2.951,3.556,7.131,3.556,12.539V109.7"/>
	<path fill="#080808" d="M550.354,85.141c-0.056-3.803-0.982-6.757-2.778-8.862c-1.891-2.154-4.667-3.318-7.529-3.158
		c-2.957-0.041-5.796,1.154-7.834,3.297c-2.266,2.394-3.704,5.452-4.102,8.723h22.225 M557.086,90.698h-29.032
		c0.105,4.636,1.34,8.18,3.704,10.631c2.365,2.451,5.612,3.686,9.742,3.704c4.636,0.009,9.133-1.58,12.733-4.501v6.149
		c-3.587,2.655-8.353,3.982-14.298,3.982c-5.945,0-10.526-1.895-13.743-5.686c-3.291-3.791-4.936-9.038-4.936-15.743
		c-0.044-3.844,0.799-7.647,2.463-11.113c1.496-3.189,3.853-5.896,6.807-7.816c2.874-1.846,6.225-2.812,9.64-2.778
		c5.328,0,9.486,1.735,12.474,5.204c2.988,3.47,4.482,8.328,4.482,14.576v3.445"/>
	<path fill="#080808" d="M586.127,75.168c-1.487-0.971-3.247-1.436-5.019-1.324c-2.92,0-5.288,1.374-7.103,4.121
		c-1.815,2.747-2.741,6.319-2.778,10.714v20.984h-6.584V68.528h6.584v8.483h0.157c0.752-2.592,2.211-4.923,4.214-6.732
		c1.799-1.609,4.133-2.49,6.547-2.473c1.336-0.058,2.67,0.133,3.936,0.565v6.834"/>
	<path fill="#777471" d="M449.775,180.849l-1.287,3.547h-0.074c-0.338-1.191-0.739-2.362-1.204-3.51l-6.788-17.039h-6.631v27.087
		h4.371v-16.669c0-1.028,0-2.269-0.065-3.704c0-0.722-0.102-1.296-0.12-1.732h0.093c0.222,1.019,0.454,1.797,0.62,2.315l8.14,19.762
		h3.056l8.075-19.938c0.23-0.701,0.416-1.415,0.556-2.139h0.093c-0.102,1.973-0.194,3.778-0.204,4.862v17.215h4.63v-27.059h-6.306
		l-6.955,16.993"/>
	<polyline fill="#777471" points="467.5,190.934 472.065,190.934 472.065,176.284 472.065,171.524 467.5,171.524 467.5,183.414 
		467.5,190.934 	"/>
	<path fill="#777471" d="M469.787,163.273c-0.722-0.009-1.42,0.263-1.945,0.759c-0.533,0.489-0.83,1.184-0.815,1.908
		c-0.01,0.704,0.284,1.379,0.806,1.852c1.116,0.994,2.801,0.994,3.917,0c0.528-0.469,0.826-1.146,0.815-1.852
		c-0.002-0.7-0.289-1.369-0.796-1.852c-0.525-0.522-1.241-0.806-1.982-0.787"/>
	<path fill="#777471" d="M488.215,171.32c-0.837-0.179-1.691-0.272-2.547-0.278c-1.936-0.041-3.85,0.418-5.556,1.334
		c-1.567,0.864-2.841,2.177-3.658,3.769c-0.858,1.725-1.29,3.63-1.259,5.556c-0.022,1.743,0.398,3.464,1.222,5.001
		c0.782,1.457,1.969,2.656,3.417,3.454c1.533,0.824,3.251,1.242,4.991,1.213c1.915,0.061,3.812-0.383,5.501-1.287h0.056v-4.186
		l-0.194,0.139c-0.682,0.497-1.434,0.89-2.232,1.167c-0.7,0.262-1.438,0.406-2.185,0.426c-1.595,0.077-3.148-0.529-4.269-1.667
		c-1.109-1.279-1.674-2.94-1.574-4.63c-0.086-1.733,0.501-3.432,1.639-4.741c1.101-1.184,2.663-1.83,4.278-1.769
		c1.572,0.024,3.095,0.553,4.343,1.509l0.194,0.139v-4.408h-0.065c-0.665-0.341-1.376-0.581-2.111-0.713"/>
	<path fill="#777471" d="M503.245,171.181c-1.114-0.014-2.196,0.374-3.047,1.093c-0.8,0.702-1.406,1.598-1.76,2.602h-0.046v-3.362
		h-4.528v19.447h4.565v-9.955c-0.065-1.459,0.334-2.902,1.139-4.121c0.657-0.986,1.769-1.572,2.954-1.556
		c0.464,0.008,0.924,0.077,1.371,0.204c0.376,0.082,0.736,0.226,1.065,0.426l0.194,0.139v-4.63h-0.074
		c-0.573-0.204-1.18-0.295-1.787-0.269"/>
	<path fill="#777471" d="M519.266,185.998c-0.949,1.117-2.371,1.718-3.834,1.621c-1.492,0.079-2.938-0.528-3.926-1.648
		c-1.007-1.327-1.509-2.968-1.417-4.63c-0.105-1.713,0.396-3.408,1.417-4.788c0.968-1.129,2.404-1.748,3.889-1.676
		c1.44-0.068,2.834,0.521,3.788,1.602c1.01,1.369,1.499,3.053,1.38,4.751c0.115,1.703-0.345,3.395-1.306,4.806 M515.627,171.089
		c-2.791-0.155-5.523,0.85-7.547,2.778c-1.892,2.07-2.872,4.812-2.723,7.612c-0.134,2.68,0.825,5.3,2.658,7.26
		c1.913,1.839,4.498,2.81,7.149,2.686c2.756,0.137,5.443-0.887,7.408-2.824c1.876-2.05,2.856-4.763,2.723-7.538
		c0.145-2.68-0.773-5.309-2.556-7.316c-1.889-1.846-4.466-2.813-7.103-2.667"/>
	<path fill="#777471" d="M535.416,179.543c-0.996-0.325-1.933-0.807-2.778-1.426c-0.384-0.398-0.586-0.938-0.556-1.491
		c-0.006-0.548,0.257-1.063,0.704-1.38c0.574-0.399,1.265-0.595,1.963-0.556c0.794,0.004,1.584,0.126,2.343,0.361
		c0.721,0.205,1.408,0.517,2.037,0.926l0.195,0.13v-4.223h-0.074c-0.669-0.264-1.365-0.457-2.074-0.574
		c-0.751-0.146-1.513-0.223-2.278-0.232c-1.922-0.082-3.813,0.504-5.353,1.658c-1.342,1.02-2.117,2.62-2.084,4.306
		c-0.016,0.825,0.138,1.645,0.454,2.408c0.309,0.704,0.782,1.323,1.38,1.806c0.852,0.647,1.786,1.176,2.778,1.574
		c0.8,0.316,1.579,0.681,2.334,1.093c0.397,0.207,0.747,0.494,1.028,0.843c0.209,0.328,0.31,0.714,0.287,1.102
		c0,1.306-0.972,1.935-2.982,1.935c-0.862-0.02-1.715-0.177-2.528-0.463c-0.923-0.303-1.795-0.747-2.584-1.315l-0.194-0.139v4.454
		h0.065c0.787,0.344,1.61,0.599,2.454,0.759c0.858,0.189,1.733,0.291,2.611,0.306c2.018,0.105,4.011-0.484,5.649-1.667
		c1.364-1.049,2.146-2.687,2.102-4.408c0.033-1.21-0.368-2.393-1.13-3.334c-1.068-1.111-2.386-1.953-3.843-2.454"/>
	<path fill="#777471" d="M556.29,185.998c-0.949,1.117-2.371,1.718-3.834,1.621c-1.492,0.078-2.937-0.529-3.926-1.648
		c-1.007-1.327-1.509-2.968-1.417-4.63c-0.105-1.713,0.396-3.408,1.417-4.788c0.968-1.129,2.404-1.748,3.889-1.676
		c1.44-0.07,2.834,0.52,3.788,1.602c1.011,1.369,1.501,3.053,1.38,4.751c0.115,1.703-0.345,3.395-1.306,4.806 M552.65,171.089
		c-2.791-0.155-5.523,0.85-7.547,2.778c-1.89,2.071-2.87,4.813-2.723,7.612c-0.132,2.682,0.83,5.302,2.667,7.26
		c1.912,1.84,4.498,2.812,7.149,2.686c2.756,0.137,5.443-0.887,7.408-2.824c1.875-2.05,2.856-4.763,2.723-7.538
		c0.145-2.68-0.773-5.309-2.556-7.316c-1.889-1.846-4.466-2.813-7.103-2.667"/>
	<path fill="#777471" d="M586.646,175.247v-3.704h-4.63v-5.779h-0.176l-4.343,1.334h-0.083v4.389h-6.844v-2.445
		c-0.067-0.927,0.203-1.848,0.759-2.593c0.537-0.593,1.313-0.913,2.111-0.87c0.694,0.008,1.379,0.162,2.01,0.454l0.167,0.074v-3.926
		h-0.083c-0.83-0.256-1.697-0.372-2.565-0.343c-1.267-0.021-2.519,0.279-3.639,0.87c-1.054,0.566-1.922,1.425-2.5,2.473
		c-0.613,1.108-0.932,2.355-0.926,3.621v2.686h-3.139v3.704h3.213v15.687h4.63v-15.632h6.844v9.964c0,4.102,1.935,6.186,5.751,6.186
		c0.66-0.005,1.318-0.079,1.963-0.222c0.494-0.084,0.974-0.237,1.426-0.454h0.065v-3.76l-0.185,0.12
		c-0.285,0.184-0.598,0.322-0.926,0.407c-0.3,0.094-0.612,0.146-0.926,0.157c-0.731,0.065-1.453-0.196-1.972-0.713
		c-0.488-0.734-0.71-1.613-0.63-2.491v-9.168h4.63"/>
	<polyline fill="#E34C22" points="396.573,176.274 375.107,176.274 375.107,154.799 396.573,154.799 396.573,176.274 	"/>
	<polyline fill="#6DBB29" points="420.271,176.274 398.805,176.274 398.805,154.799 420.271,154.799 420.271,176.274 	"/>
	<polyline fill="#599DD5" points="396.573,200 375.107,200 375.107,178.525 396.573,178.525 396.573,200 	"/>
	<polyline fill="#F3BF00" points="420.271,200 398.805,200 398.805,178.525 420.271,178.525 420.271,200 	"/>
	<path fill="#7F6D1F" d="M23.429,28.504c-2.939,1.661-6.265,2.514-9.64,2.473c-2.524,0.038-5.012-0.602-7.205-1.852
		c-2.096-1.206-3.791-3.003-4.871-5.167c-1.164-2.34-1.748-4.925-1.704-7.538c-0.138-4.068,1.375-8.02,4.195-10.955
		c2.813-2.889,6.712-4.459,10.742-4.325c2.711-0.084,5.406,0.438,7.89,1.528v3.704c-2.485-1.531-5.361-2.306-8.279-2.232
		C12.561,4.11,10.595,4.636,8.88,5.658C7.187,6.684,5.822,8.171,4.945,9.946c-0.959,1.913-1.445,4.028-1.417,6.168
		c0,3.63,0.954,6.495,2.862,8.594c2.014,2.145,4.868,3.296,7.807,3.149c2.033,0.047,4.044-0.424,5.843-1.371v-7.964h-6.251v-3.056
		h9.64V28.504"/>
	<path fill="#7F6D1F" d="M46.052,20.225c0-2.587-0.571-4.569-1.713-5.945c-1.224-1.417-3.038-2.184-4.908-2.074
		c-1.908-0.088-3.753,0.691-5.019,2.121c-1.329,1.7-1.988,3.829-1.852,5.982c-0.131,2.09,0.531,4.154,1.852,5.779
		c1.277,1.405,3.113,2.169,5.01,2.084c1.868,0.117,3.684-0.639,4.917-2.047c1.242-1.702,1.845-3.787,1.704-5.89 M49.414,20.114
		c0.137,2.891-0.86,5.722-2.778,7.89c-1.942,2.021-4.664,3.105-7.464,2.973c-2.732,0.123-5.384-0.936-7.279-2.908
		c-1.874-2.095-2.852-4.841-2.723-7.649c0-3.402,0.926-6.09,2.778-8.066c2.024-2.042,4.825-3.121,7.696-2.963
		c2.694-0.146,5.315,0.901,7.168,2.862c1.729,1.908,2.593,4.525,2.593,7.853"/>
	<polyline fill="#7F6D1F" points="58.85,30.476 55.553,30.476 55.553,0 58.85,0 58.85,30.476 	"/>
	<path fill="#7F6D1F" d="M80.64,21.17v-3.037c0.047-1.587-0.567-3.123-1.695-4.241c-1.086-1.106-2.58-1.716-4.13-1.685
		c-1.837-0.068-3.595,0.752-4.723,2.204c-1.261,1.776-1.879,3.929-1.75,6.103c-0.1,1.986,0.482,3.946,1.648,5.556
		c1.064,1.356,2.713,2.121,4.436,2.056c1.705,0.043,3.34-0.681,4.454-1.972c1.197-1.395,1.822-3.192,1.75-5.028 M83.928,30.384
		h-3.297v-3.408h-0.083c-2.353,3.908-7.429,5.169-11.337,2.816c-0.727-0.438-1.382-0.985-1.942-1.622
		c-1.629-2.147-2.446-4.801-2.306-7.492c-0.146-2.953,0.764-5.861,2.565-8.205c1.672-2.038,4.2-3.179,6.834-3.084
		c2.524-0.158,4.917,1.136,6.168,3.334h0.083V0h3.297v30.467"/>
</g>
</svg>
