<svg xmlns="http://www.w3.org/2000/svg" viewBox="0 0 336.33 336.33"><defs><style>.cls-1{fill:#01386f;}.cls-2{fill:#fdfeff;}.cls-3{fill:#38b6ff;}.cls-4{fill:#fff;}</style></defs><title>softwareworld-top-app-development-companies</title><g id="Layer_2" data-name="Layer 2"><g id="Layer_1-2" data-name="Layer 1"><circle class="cls-1" cx="168.17" cy="168.17" r="168.17"/><circle class="cls-2" cx="168.17" cy="168.17" r="164.44"/><circle class="cls-1" cx="168.17" cy="168.17" r="158.05"/><circle class="cls-2" cx="168.17" cy="168.17" r="146.33"/><circle class="cls-1" cx="168.17" cy="168.17" r="138.34"/><polygon class="cls-3" points="85.39 59.86 93.15 64.15 101.09 60.19 99.4 68.9 105.62 75.22 96.82 76.31 92.73 84.18 88.97 76.14 80.22 74.68 86.7 68.63 85.39 59.86"/><polygon class="cls-3" points="69.81 83.21 76.31 85.69 82.05 81.75 81.69 88.7 87.22 92.94 80.5 94.75 78.18 101.31 74.38 95.48 67.42 95.3 71.79 89.88 69.81 83.21"/><polygon class="cls-3" points="113.36 52.95 118.87 57.2 125.5 55.06 123.17 61.62 127.25 67.26 120.29 67.07 116.18 72.69 114.22 66.02 107.6 63.85 113.34 59.91 113.36 52.95"/><polygon class="cls-3" points="250.94 59.86 243.18 64.15 235.25 60.19 236.93 68.9 230.71 75.22 239.51 76.31 243.6 84.18 247.36 76.14 256.11 74.68 249.63 68.63 250.94 59.86"/><polygon class="cls-3" points="266.52 83.21 260.02 85.69 254.29 81.75 254.64 88.7 249.11 92.94 255.84 94.75 258.16 101.31 261.96 95.48 268.92 95.3 264.54 89.88 266.52 83.21"/><polygon class="cls-3" points="222.98 52.95 217.46 57.2 210.83 55.06 213.17 61.62 209.09 67.26 216.05 67.07 220.15 72.69 222.12 66.02 228.74 63.85 222.99 59.91 222.98 52.95"/><path class="cls-2" d="M177.59,93.7c-2.7-2-2.7-14.38-2.7-14.38H168.2v0h-6.76s0,12.38-2.7,14.38h9.39v0Z"/><path class="cls-2" d="M144.09,43.28A6.75,6.75,0,0,0,137.34,50V56.4c0,6.23,5.05,19.49,11.29,19.49H165.9V43.28Zm15.68,26.14a.5.5,0,0,1-.5.5h-8.94a3.36,3.36,0,0,1-2.76-1.44c-2-2.84-4.25-8.63-4.25-12.21V51.06a1.81,1.81,0,0,1,1.8-1.8h14.14a.5.5,0,0,1,.5.5Z"/><path class="cls-2" d="M170.43,43.31V75.92H187.7c6.23,0,11.29-13.26,11.29-19.49V50.06a6.75,6.75,0,0,0-6.75-6.75Zm6.12,6.47a.5.5,0,0,1,.5-.5H191.2a1.81,1.81,0,0,1,1.8,1.8V56.3c0,3.58-2.27,9.38-4.25,12.21A3.36,3.36,0,0,1,186,69.95h-8.94a.5.5,0,0,1-.5-.5Z"/><path class="cls-3" d="M155.68,92.47h25a2.9,2.9,0,0,1,2.9,2.9v2.9a0,0,0,0,1,0,0H152.79a0,0,0,0,1,0,0v-2.9A2.9,2.9,0,0,1,155.68,92.47Z"/><path class="cls-3" d="M150.74,97.36h34.85a2,2,0,0,1,2,2v4a0,0,0,0,1,0,0H148.69a0,0,0,0,1,0,0v-4A2,2,0,0,1,150.74,97.36Z"/><rect class="cls-4" x="29.03" y="156.58" width="278.28" height="7.72"/><polygon class="cls-3" points="4.13 311.04 332.21 311.04 326.12 302.98 9.82 302.98 4.13 311.04"/><polygon class="cls-3" points="332.21 243.93 4.13 243.93 9.55 252.05 326.4 252.05 332.21 243.93"/><polygon class="cls-1" points="326.4 252.05 9.55 252.05 27.16 278.41 9.82 302.98 326.12 302.98 307.57 278.41 326.4 252.05"/><path class="cls-3" d="M184,40.14H152.31a3.69,3.69,0,0,0-3.69,3.69v9.29c0,10.79,8.74,29.7,19.53,29.76h0c10.79-.05,19.53-19,19.53-29.76V43.84A3.69,3.69,0,0,0,184,40.14Z"/></g><g id="Layer_3" data-name="Layer 3"><path class="cls-4" d="M73.93,144.38H67.65V120H59.59v-5.23H82V120H73.93Z"/><path class="cls-4" d="M112.43,129.51q0,7.37-3.65,11.32t-10.47,4q-6.81,0-10.47-4t-3.65-11.36q0-7.4,3.66-11.31t10.5-3.9q6.83,0,10.46,3.93T112.43,129.51Zm-21.64,0q0,5,1.89,7.49a6.6,6.6,0,0,0,5.64,2.51q7.53,0,7.53-10t-7.48-10A6.64,6.64,0,0,0,92.69,122Q90.79,124.54,90.79,129.51Z"/><path class="cls-4" d="M138,124q0,4.79-3,7.32t-8.51,2.54h-2.7v10.55h-6.29V114.73H127q5.4,0,8.21,2.32T138,124Zm-14.2,4.71h2.07a6.89,6.89,0,0,0,4.34-1.15,4,4,0,0,0,1.44-3.34,4.12,4.12,0,0,0-1.21-3.27,5.66,5.66,0,0,0-3.78-1.05h-2.86Z"/><path class="cls-4" d="M158.63,133v11.38h-6.29V114.73H161q6,0,8.95,2.2t2.9,6.68a7.87,7.87,0,0,1-1.44,4.66,9.53,9.53,0,0,1-4.08,3.19q6.69,10,8.72,12.92h-7L162,133Zm0-5.11h2a7.76,7.76,0,0,0,4.4-1,3.55,3.55,0,0,0,1.42-3.12,3.25,3.25,0,0,0-1.45-3,8.81,8.81,0,0,0-4.49-.89h-1.91Z"/><path class="cls-4" d="M196.88,144.38l-2.15-7.06H183.92l-2.15,7.06H175l10.47-29.78h7.69l10.51,29.78ZM193.23,132q-3-9.59-3.36-10.85t-.54-2q-.67,2.6-3.83,12.84Z"/><path class="cls-4" d="M217.79,144.38H211.5V120h-8.05v-5.23h22.39V120h-8.05Z"/><path class="cls-4" d="M246.44,144.38H229.37V114.73h17.08v5.15H235.65v6.51h10v5.15h-10v7.65h10.79Z"/><path class="cls-4" d="M276.2,129.27q0,7.32-4.17,11.22t-12,3.89h-8.4V114.73h9.31q7.26,0,11.28,3.83T276.2,129.27Zm-6.53.16q0-9.55-8.44-9.55h-3.35v19.31h2.7Q269.67,139.19,269.67,129.43Z"/><path class="cls-4" d="M52.3,280.42a5.31,5.31,0,0,1-2,4.38,8.7,8.7,0,0,1-5.57,1.6,13.07,13.07,0,0,1-5.81-1.24v-4a24.08,24.08,0,0,0,3.52,1.31,10.41,10.41,0,0,0,2.63.38,3.75,3.75,0,0,0,2.2-.55,1.87,1.87,0,0,0,.77-1.63,1.8,1.8,0,0,0-.34-1.07,3.77,3.77,0,0,0-1-.91A25.51,25.51,0,0,0,44,277.26a12.61,12.61,0,0,1-2.82-1.7,6.37,6.37,0,0,1-1.5-1.9,5.4,5.4,0,0,1-.56-2.53A5.3,5.3,0,0,1,41,266.86a7.67,7.67,0,0,1,5.1-1.56,12,12,0,0,1,3.05.38,20.91,20.91,0,0,1,3,1.07l-1.4,3.38a20.57,20.57,0,0,0-2.72-.94,8.75,8.75,0,0,0-2.11-.27,2.8,2.8,0,0,0-1.9.58,1.9,1.9,0,0,0-.66,1.5,1.86,1.86,0,0,0,.27,1,2.93,2.93,0,0,0,.85.83,26,26,0,0,0,2.76,1.44A11,11,0,0,1,51.24,277,5.39,5.39,0,0,1,52.3,280.42Z"/><path class="cls-4" d="M74.66,275.83q0,5.1-2.53,7.84t-7.25,2.74q-4.72,0-7.25-2.74t-2.53-7.86q0-5.13,2.54-7.83t7.27-2.7q4.73,0,7.24,2.72T74.66,275.83Zm-15,0A8.58,8.58,0,0,0,61,281a4.57,4.57,0,0,0,3.9,1.74q5.21,0,5.21-6.92t-5.18-6.94A4.6,4.6,0,0,0,61,270.64,8.54,8.54,0,0,0,59.68,275.83Z"/><path class="cls-4" d="M83.2,286.13H78.92V265.59H90.68v3.57H83.2v5.29h7V278h-7Z"/><path class="cls-4" d="M102.62,286.13H98.27V269.22H92.69v-3.62h15.5v3.62h-5.58Z"/><path class="cls-4" d="M131.35,286.13h-5l-2.78-10.79q-.16-.58-.53-2.38t-.43-2.42q-.08.76-.42,2.44t-.52,2.39L119,286.13H114l-5.24-20.53h4.28l2.63,11.21q.69,3.1,1,5.38.08-.8.39-2.48t.57-2.6l3-11.5h4.11l3,11.5q.2.77.49,2.36t.45,2.72q.14-1.1.45-2.73t.56-2.65l2.61-11.21h4.28Z"/><path class="cls-4" d="M151.73,286.13l-1.49-4.89h-7.49l-1.49,4.89h-4.69l7.25-20.62h5.32l7.27,20.62Zm-2.53-8.54q-2.06-6.64-2.32-7.51c-.17-.58-.3-1-.37-1.38q-.46,1.8-2.65,8.89Z"/><path class="cls-4" d="M163.36,278.25v7.88H159V265.59h6q4.18,0,6.19,1.52a6.07,6.07,0,0,1,1,7.85,6.6,6.6,0,0,1-2.82,2.21q4.63,6.92,6,8.95h-4.83l-4.9-7.88Zm0-3.54h1.4a5.37,5.37,0,0,0,3-.69,2.46,2.46,0,0,0,1-2.16,2.25,2.25,0,0,0-1-2.08,6.08,6.08,0,0,0-3.11-.62h-1.32Z"/><path class="cls-4" d="M189.81,286.13H178V265.59h11.82v3.57h-7.47v4.51h7v3.57h-7v5.29h7.47Z"/><path class="cls-4" d="M214.09,286.13h-5l-2.78-10.79q-.16-.58-.53-2.38t-.43-2.42q-.08.76-.42,2.44t-.52,2.39l-2.77,10.76h-4.94l-5.24-20.53h4.28l2.63,11.21q.69,3.1,1,5.38.08-.8.39-2.48t.57-2.6l3-11.5h4.11l3,11.5q.2.77.49,2.36t.45,2.72q.14-1.1.45-2.73t.56-2.65L215,265.59h4.28Z"/><path class="cls-4" d="M240.54,275.83q0,5.1-2.53,7.84t-7.25,2.74q-4.72,0-7.25-2.74T221,275.8q0-5.13,2.54-7.83t7.27-2.7q4.73,0,7.24,2.72T240.54,275.83Zm-15,0a8.58,8.58,0,0,0,1.31,5.18,4.57,4.57,0,0,0,3.9,1.74q5.21,0,5.21-6.92t-5.18-6.94a4.6,4.6,0,0,0-3.92,1.75A8.54,8.54,0,0,0,225.55,275.83Z"/><path class="cls-4" d="M249.15,278.25v7.88h-4.35V265.59h6q4.18,0,6.19,1.52a6.07,6.07,0,0,1,1,7.85,6.6,6.6,0,0,1-2.82,2.21q4.63,6.92,6,8.95h-4.83l-4.9-7.88Zm0-3.54h1.4a5.37,5.37,0,0,0,3-.69,2.46,2.46,0,0,0,1-2.16,2.25,2.25,0,0,0-1-2.08,6.08,6.08,0,0,0-3.11-.62h-1.32Z"/><path class="cls-4" d="M263.78,286.13V265.59h4.35v16.94h8.33v3.59Z"/><path class="cls-4" d="M297.06,275.66q0,5.07-2.88,7.77t-8.33,2.7H280V265.59h6.45q5,0,7.81,2.65A9.76,9.76,0,0,1,297.06,275.66Zm-4.52.11q0-6.61-5.84-6.61h-2.32v13.37h1.87Q292.54,282.53,292.54,275.78Z"/><path class="cls-4" d="M79,198.51l-1.24-4.08H71.53l-1.24,4.08H66.37l6-17.2h4.44l6.07,17.2Zm-2.11-7.12q-1.72-5.54-1.94-6.27T74.66,184q-.39,1.5-2.21,7.42Z"/><path class="cls-4" d="M91.59,198.74A4.35,4.35,0,0,1,88,197.07h-.19q.19,1.64.19,1.9v5.31H84.4V185.41H87.3l.5,1.7H88a4.13,4.13,0,0,1,3.71-1.95A4.25,4.25,0,0,1,95.32,187a8.29,8.29,0,0,1,1.31,5,9.83,9.83,0,0,1-.62,3.64,5.11,5.11,0,0,1-1.75,2.36A4.49,4.49,0,0,1,91.59,198.74ZM90.54,188a2.26,2.26,0,0,0-1.93.81,4.68,4.68,0,0,0-.63,2.69v.39a5.52,5.52,0,0,0,.63,3,2.24,2.24,0,0,0,2,.91q2.4,0,2.4-4a5.66,5.66,0,0,0-.59-2.9A2,2,0,0,0,90.54,188Z"/><path class="cls-4" d="M106.07,198.74a4.35,4.35,0,0,1-3.62-1.68h-.19q.19,1.64.19,1.9v5.31H98.87V185.41h2.91l.5,1.7h.16a4.13,4.13,0,0,1,3.71-1.95,4.25,4.25,0,0,1,3.63,1.79,8.29,8.29,0,0,1,1.31,5,9.83,9.83,0,0,1-.62,3.64,5.11,5.11,0,0,1-1.75,2.36A4.49,4.49,0,0,1,106.07,198.74ZM105,188a2.26,2.26,0,0,0-1.93.81,4.68,4.68,0,0,0-.63,2.69v.39a5.52,5.52,0,0,0,.63,3,2.24,2.24,0,0,0,2,.91q2.4,0,2.4-4a5.66,5.66,0,0,0-.59-2.9A2,2,0,0,0,105,188Z"/><path class="cls-4" d="M133.59,189.78a8.44,8.44,0,0,1-2.41,6.48q-2.41,2.25-7,2.25h-4.85V181.38h5.38a9.06,9.06,0,0,1,6.52,2.21A8.15,8.15,0,0,1,133.59,189.78Zm-3.77.09q0-5.52-4.88-5.52H123v11.16h1.56Q129.82,195.51,129.82,189.87Z"/><path class="cls-4" d="M142.06,198.74a6.76,6.76,0,0,1-4.95-1.75,6.61,6.61,0,0,1-1.78-4.95A7.27,7.27,0,0,1,137,187a5.86,5.86,0,0,1,4.55-1.8,5.77,5.77,0,0,1,4.32,1.58,6,6,0,0,1,1.55,4.37v1.73H139a3.44,3.44,0,0,0,.9,2.38,3.17,3.17,0,0,0,2.37.86,9.83,9.83,0,0,0,2.24-.25,11.2,11.2,0,0,0,2.2-.79v2.77a8.39,8.39,0,0,1-2,.7A12.63,12.63,0,0,1,142.06,198.74Zm-.5-11a2.27,2.27,0,0,0-1.78.72,3.34,3.34,0,0,0-.74,2h5a3,3,0,0,0-.69-2A2.34,2.34,0,0,0,141.56,187.7Z"/><path class="cls-4" d="M152.57,198.51l-5-13.1h3.74l2.53,7.46a13.32,13.32,0,0,1,.53,2.68h.07a11.67,11.67,0,0,1,.53-2.68l2.52-7.46h3.74l-5,13.1Z"/><path class="cls-4" d="M168,198.74A6.76,6.76,0,0,1,163.1,197a6.61,6.61,0,0,1-1.78-4.95A7.27,7.27,0,0,1,163,187a5.86,5.86,0,0,1,4.55-1.8,5.77,5.77,0,0,1,4.32,1.58,6,6,0,0,1,1.55,4.37v1.73h-8.45a3.44,3.44,0,0,0,.9,2.38,3.17,3.17,0,0,0,2.37.86,9.83,9.83,0,0,0,2.24-.25,11.2,11.2,0,0,0,2.2-.79v2.77a8.39,8.39,0,0,1-2,.7A12.63,12.63,0,0,1,168,198.74Zm-.5-11a2.27,2.27,0,0,0-1.78.72,3.34,3.34,0,0,0-.74,2h5a3,3,0,0,0-.69-2A2.34,2.34,0,0,0,167.54,187.7Z"/><path class="cls-4" d="M179.2,198.51h-3.57V180.27h3.57Z"/><path class="cls-4" d="M194.12,191.93a7,7,0,0,1-1.69,5,6.12,6.12,0,0,1-4.7,1.8,6.57,6.57,0,0,1-3.33-.83,5.5,5.5,0,0,1-2.21-2.37,8,8,0,0,1-.77-3.61,7,7,0,0,1,1.68-5,6.15,6.15,0,0,1,4.71-1.78,6.61,6.61,0,0,1,3.33.82,5.48,5.48,0,0,1,2.21,2.36A7.9,7.9,0,0,1,194.12,191.93Zm-9.06,0a5.5,5.5,0,0,0,.64,2.94,2.28,2.28,0,0,0,2.08,1,2.25,2.25,0,0,0,2.06-1,5.58,5.58,0,0,0,.63-2.95,5.41,5.41,0,0,0-.63-2.92,2.69,2.69,0,0,0-4.14,0A5.41,5.41,0,0,0,185.06,191.93Z"/><path class="cls-4" d="M203.49,198.74a4.35,4.35,0,0,1-3.62-1.68h-.19q.19,1.64.19,1.9v5.31h-3.57V185.41h2.91l.5,1.7h.16a4.13,4.13,0,0,1,3.71-1.95,4.25,4.25,0,0,1,3.63,1.79,8.29,8.29,0,0,1,1.31,5,9.83,9.83,0,0,1-.62,3.64,5.11,5.11,0,0,1-1.75,2.36A4.49,4.49,0,0,1,203.49,198.74ZM202.43,188a2.26,2.26,0,0,0-1.93.81,4.68,4.68,0,0,0-.63,2.69v.39a5.52,5.52,0,0,0,.63,3,2.24,2.24,0,0,0,2,.91q2.4,0,2.4-4a5.66,5.66,0,0,0-.59-2.9A2,2,0,0,0,202.43,188Z"/><path class="cls-4" d="M222.5,198.51h-3.57v-7.65a3.85,3.85,0,0,0-.47-2.13A1.67,1.67,0,0,0,217,188a2.16,2.16,0,0,0-2,1,6.61,6.61,0,0,0-.62,3.32v6.16h-3.57v-13.1h2.73l.48,1.68h.2a3.63,3.63,0,0,1,1.52-1.41,5,5,0,0,1,2.29-.51q2.94,0,4,1.92h.32a3.54,3.54,0,0,1,1.55-1.42,5.18,5.18,0,0,1,2.31-.5,4.57,4.57,0,0,1,3.37,1.14,5,5,0,0,1,1.14,3.66v8.54h-3.59v-7.65a3.85,3.85,0,0,0-.47-2.13,1.67,1.67,0,0,0-1.49-.71,2.23,2.23,0,0,0-2,.94,5.32,5.32,0,0,0-.65,3Z"/><path class="cls-4" d="M239.49,198.74a6.76,6.76,0,0,1-4.95-1.75,6.61,6.61,0,0,1-1.78-4.95,7.27,7.27,0,0,1,1.65-5.09,5.86,5.86,0,0,1,4.55-1.8,5.77,5.77,0,0,1,4.32,1.58,6,6,0,0,1,1.55,4.37v1.73h-8.45a3.44,3.44,0,0,0,.9,2.38,3.17,3.17,0,0,0,2.37.86,9.83,9.83,0,0,0,2.24-.25,11.2,11.2,0,0,0,2.2-.79v2.77a8.39,8.39,0,0,1-2,.7A12.63,12.63,0,0,1,239.49,198.74Zm-.5-11a2.27,2.27,0,0,0-1.78.72,3.34,3.34,0,0,0-.74,2h5a3,3,0,0,0-.69-2A2.34,2.34,0,0,0,239,187.7Z"/><path class="cls-4" d="M259.18,198.51h-3.57v-7.65a3.68,3.68,0,0,0-.5-2.13,1.83,1.83,0,0,0-1.61-.71,2.41,2.41,0,0,0-2.17,1,6.21,6.21,0,0,0-.67,3.32v6.16h-3.57v-13.1h2.73l.48,1.68h.2a3.78,3.78,0,0,1,1.65-1.44,5.61,5.61,0,0,1,2.38-.49A4.58,4.58,0,0,1,258,186.4a5,5,0,0,1,1.18,3.57Z"/><path class="cls-4" d="M267.5,195.89a7.75,7.75,0,0,0,2.25-.41v2.66a8,8,0,0,1-3.28.6,4,4,0,0,1-3.12-1.08,4.72,4.72,0,0,1-1-3.25v-6.32h-1.71v-1.51l2-1.2,1-2.77h2.29v2.79h3.67v2.68h-3.67v6.32a1.4,1.4,0,0,0,.43,1.13A1.69,1.69,0,0,0,267.5,195.89Z"/><path class="cls-4" d="M114.74,212.91a3.7,3.7,0,0,0-3.18,1.54,7.17,7.17,0,0,0-1.12,4.29q0,5.73,4.3,5.73a13.6,13.6,0,0,0,4.37-.9v3a12.14,12.14,0,0,1-4.71.88,7.18,7.18,0,0,1-5.72-2.27q-2-2.27-2-6.51a10.63,10.63,0,0,1,1-4.68,7,7,0,0,1,2.79-3.08,8.27,8.27,0,0,1,4.27-1.07,11.53,11.53,0,0,1,5,1.21l-1.17,3a19.4,19.4,0,0,0-1.93-.8A5.77,5.77,0,0,0,114.74,212.91Z"/><path class="cls-4" d="M133.46,220.69a7,7,0,0,1-1.69,5,6.12,6.12,0,0,1-4.7,1.8,6.57,6.57,0,0,1-3.33-.83,5.5,5.5,0,0,1-2.21-2.37,8,8,0,0,1-.77-3.61,7,7,0,0,1,1.68-5,6.15,6.15,0,0,1,4.71-1.78,6.61,6.61,0,0,1,3.33.82,5.48,5.48,0,0,1,2.21,2.36A7.9,7.9,0,0,1,133.46,220.69Zm-9.06,0a5.5,5.5,0,0,0,.64,2.94,2.28,2.28,0,0,0,2.08,1,2.25,2.25,0,0,0,2.06-1,5.58,5.58,0,0,0,.63-2.95,5.41,5.41,0,0,0-.63-2.92,2.69,2.69,0,0,0-4.14,0A5.41,5.41,0,0,0,124.41,220.69Z"/><path class="cls-4" d="M147.37,227.27h-3.57v-7.65a3.85,3.85,0,0,0-.47-2.13,1.67,1.67,0,0,0-1.49-.71,2.16,2.16,0,0,0-2,1,6.61,6.61,0,0,0-.62,3.32v6.16h-3.57v-13.1h2.73l.48,1.68h.2a3.63,3.63,0,0,1,1.52-1.41,5,5,0,0,1,2.29-.51q2.94,0,4,1.92h.32a3.54,3.54,0,0,1,1.55-1.42,5.18,5.18,0,0,1,2.31-.5,4.57,4.57,0,0,1,3.37,1.14,5,5,0,0,1,1.14,3.66v8.54H152v-7.65a3.85,3.85,0,0,0-.47-2.13,1.67,1.67,0,0,0-1.49-.71,2.23,2.23,0,0,0-2,.94,5.32,5.32,0,0,0-.65,3Z"/><path class="cls-4" d="M165.55,227.5a4.35,4.35,0,0,1-3.62-1.68h-.19q.19,1.64.19,1.9V233h-3.57V214.17h2.91l.5,1.7h.16a4.13,4.13,0,0,1,3.71-1.95,4.25,4.25,0,0,1,3.63,1.79,8.29,8.29,0,0,1,1.31,5,9.83,9.83,0,0,1-.62,3.64,5.11,5.11,0,0,1-1.75,2.36A4.49,4.49,0,0,1,165.55,227.5Zm-1.05-10.72a2.26,2.26,0,0,0-1.93.81,4.68,4.68,0,0,0-.63,2.69v.39a5.52,5.52,0,0,0,.63,3,2.24,2.24,0,0,0,2,.91q2.4,0,2.4-4a5.66,5.66,0,0,0-.59-2.9A2,2,0,0,0,164.5,216.78Z"/><path class="cls-4" d="M181.14,227.27l-.69-1.78h-.09a5.28,5.28,0,0,1-1.86,1.58,6,6,0,0,1-2.49.44,4,4,0,0,1-3-1.08,4.14,4.14,0,0,1-1.08-3.07,3.46,3.46,0,0,1,1.46-3.08,8.45,8.45,0,0,1,4.4-1.1l2.27-.07v-.57a1.78,1.78,0,0,0-2-2,9.29,9.29,0,0,0-3.69.95l-1.18-2.41a10.65,10.65,0,0,1,5-1.18,6.25,6.25,0,0,1,4,1.15,4.24,4.24,0,0,1,1.41,3.49v8.73Zm-1.05-6.07-1.38,0a4.43,4.43,0,0,0-2.32.56,1.77,1.77,0,0,0-.76,1.57q0,1.51,1.73,1.51a2.75,2.75,0,0,0,2-.71,2.51,2.51,0,0,0,.74-1.9Z"/><path class="cls-4" d="M198.54,227.27H195v-7.65a3.68,3.68,0,0,0-.5-2.13,1.83,1.83,0,0,0-1.61-.71,2.41,2.41,0,0,0-2.17,1,6.21,6.21,0,0,0-.67,3.32v6.16h-3.57v-13.1h2.73l.48,1.68h.2a3.78,3.78,0,0,1,1.65-1.44,5.61,5.61,0,0,1,2.38-.49,4.58,4.58,0,0,1,3.47,1.24,5,5,0,0,1,1.18,3.57Z"/><path class="cls-4" d="M201.18,210.78q0-1.75,1.95-1.75t1.95,1.75a1.7,1.7,0,0,1-.49,1.29,2,2,0,0,1-1.46.46Q201.18,212.54,201.18,210.78Zm3.73,16.49h-3.57v-13.1h3.57Z"/><path class="cls-4" d="M213.81,227.5a6.76,6.76,0,0,1-4.95-1.75,6.61,6.61,0,0,1-1.78-4.95,7.27,7.27,0,0,1,1.65-5.09,5.86,5.86,0,0,1,4.55-1.8,5.77,5.77,0,0,1,4.32,1.58,6,6,0,0,1,1.55,4.37v1.73H210.7a3.44,3.44,0,0,0,.9,2.38,3.17,3.17,0,0,0,2.37.86,9.83,9.83,0,0,0,2.24-.25,11.2,11.2,0,0,0,2.2-.79v2.77a8.39,8.39,0,0,1-2,.7A12.63,12.63,0,0,1,213.81,227.5Zm-.5-11a2.27,2.27,0,0,0-1.78.72,3.34,3.34,0,0,0-.74,2h5a3,3,0,0,0-.69-2A2.34,2.34,0,0,0,213.3,216.46Z"/><path class="cls-4" d="M230.67,223.38a3.61,3.61,0,0,1-1.4,3.07,6.92,6.92,0,0,1-4.19,1.05,13.16,13.16,0,0,1-2.44-.19,9.22,9.22,0,0,1-1.89-.57v-3a12.46,12.46,0,0,0,2.24.79,9.09,9.09,0,0,0,2.2.32q1.95,0,1.95-1.12a.94.94,0,0,0-.26-.69,3.74,3.74,0,0,0-.89-.6q-.63-.33-1.69-.78a10.6,10.6,0,0,1-2.22-1.17,3.3,3.3,0,0,1-1-1.24,4.08,4.08,0,0,1-.32-1.72,3.11,3.11,0,0,1,1.35-2.7,6.59,6.59,0,0,1,3.84-1,10.89,10.89,0,0,1,4.61,1l-1.08,2.58q-1-.42-1.84-.69a5.78,5.78,0,0,0-1.75-.27q-1.58,0-1.58.86a1,1,0,0,0,.51.83,13.86,13.86,0,0,0,2.23,1,10.37,10.37,0,0,1,2.25,1.16,3.43,3.43,0,0,1,1.05,1.24A3.82,3.82,0,0,1,230.67,223.38Z"/></g></g></svg>